<svg xmlns="http://www.w3.org/2000/svg" width="12" height="12">
  <defs/>
  <g fill="#155724" fill-rule="evenodd">
    <path d="M6.98931738 2.74727306c-.02414295-.078224-.08913066-.13521098-.16731634-.14671776l-.43838342-.06613703-.1965419-.41430664C6.15240221 2.04642406 6.080348 1.99978978 6.00149341 2c-.0788546-.00021022-.15090881.04642406-.18558232.12011163l-.2001951.41430664-.43838342.06613703c-.07799902.01167543-.14283865.06846404-.16719878.14643802-.02436014.07797398-.00400513.16357551.05248845.22073649l.31928926.32308316-.0730639.45611741c-.01394574.08100202.01774104.16318474.0816247.21170149.06388366.04851676.14877076.05486664.21866794.01635721l.39089189-.21513537.3930838.21513537c.06989718.03850943.15478428.03215955.21866794-.01635721.06388366-.04851675.09557045-.13069947.0816247-.21170149l-.0730639-.45611741.31782798-.32232296c.0563546-.05746589.0762158-.14337178.05114473-.22121695zm5.00000002-2c-.024143-.078224-.0891307-.13521098-.1673164-.14671776l-.4383834-.06613703-.1965419-.41430664C11.1524022.04642406 11.080348-.00021022 11.0014934 0c-.0788546-.00021022-.1509088.04642406-.1855823.12011163l-.2001951.41430664-.4383834.06613703c-.077999.01167543-.1428387.06846404-.1671988.14643802-.02436015.07797398-.0040051.16357551.0524884.22073649l.3192893.32308316-.0730639.45611741c-.0139457.08100202.017741.16318474.0816247.21170149.0638837.04851676.1487708.05486664.2186679.01635721l.3908919-.21513537.3930838.21513537c.0698972.03850943.1547843.03215955.218668-.01635721.0638836-.04851675.0955704-.13069947.0816247-.21170149l-.0730639-.45611741.317828-.32232296c.0563546-.05746589.0762158-.14337178.0511447-.22121695z" opacity=".25"/>
    <path d="M1.98931738 4.74727306c-.02414295-.078224-.08913066-.13521098-.16731634-.14671776l-.43838342-.06613703-.1965419-.41430664C1.15240221 4.04642406 1.080348 3.99978978 1.00149341 4c-.0788546-.00021022-.15090881.04642406-.18558232.12011163l-.2001951.41430664-.43838342.06613703c-.07799902.01167543-.14283865.06846404-.16719878.14643802-.02436014.07797398-.00400513.16357551.05248845.22073649l.31928926.32308316-.0730639.45611741c-.01394575.08100202.01774104.16318474.0816247.21170149.06388366.04851676.14877076.05486664.21866794.01635721l.39089189-.21513537.3930838.21513537c.06989718.03850943.15478428.03215955.21866794-.01635721.06388366-.04851675.09557045-.13069947.0816247-.21170149l-.0730639-.45611741.31782798-.32232296c.0563546-.05746589.0762158-.14337178.05114473-.22121695z"/>
    <rect width="2" height="5" y="7" rx="1"/>
    <rect width="2" height="7" x="5" y="5" opacity=".25" rx="1"/>
    <rect width="2" height="9" x="10" y="3" opacity=".25" rx="1"/>
  </g>
</svg>