<?xml version="1.0" encoding="utf-8"?><svg width="112" height="112" viewBox="0 0 112 112" xmlns="http://www.w3.org/2000/svg" xmlns:xlink="http://www.w3.org/1999/xlink"><view id="africa" viewBox="76 68 16 16"/><svg width="16" height="16" viewBox="0 0 16 16" x="76" y="68" xmlns="http://www.w3.org/2000/svg"><g fill="none" fill-rule="evenodd"><rect width="16" height="16" rx="2" fill="#E7FAEF"/><text font-family="Avenir-Heavy, Avenir" font-size="10" font-weight="600" fill="#15D164"><tspan x="1.5" y="11.5">AF</tspan></text></g></svg><view id="asia" viewBox="96 0 16 16"/><svg width="16" height="16" viewBox="0 0 16 16" x="96" xmlns="http://www.w3.org/2000/svg"><g fill="none" fill-rule="evenodd"><rect width="16" height="16" rx="2" fill="#E7FAEF"/><text font-family="Avenir-Heavy, Avenir" font-size="10" font-weight="600" fill="#15D164"><tspan x="4" y="11.5">A</tspan></text></g></svg><view id="completed" viewBox="40 0 28 28"/><svg width="28" height="28" viewBox="0 0 28 28" x="40" xmlns="http://www.w3.org/2000/svg"><g fill="none" fill-rule="evenodd"><path d="M14 27.034c7.732 0 14-6.051 14-13.517C28 6.052 21.732 0 14 0S0 6.052 0 13.517c0 7.466 6.268 13.517 14 13.517z" fill="#15D164" fill-rule="nonzero"/><circle fill="#FFF" opacity=".2" cx="14" cy="14" r="8"/><path fill="#FFF" fill-rule="nonzero" d="M21.16 8l-7.206 7.308-4.116-4.15-.838.845L13.958 17 22 8.842z"/></g></svg><view id="datetime-picker" viewBox="64 96 14 13"/><svg width="14" height="13" viewBox="0 0 14 13" x="64" y="96" xmlns="http://www.w3.org/2000/svg"><path d="M3.763.269A.27.27 0 003.494 0h-.537a.27.27 0 00-.269.269v.806H1.344C.604 1.075 0 1.68 0 2.42v9.14c0 .739.605 1.343 1.344 1.343h11.29c.739 0 1.344-.604 1.344-1.344V2.42c0-.739-.605-1.344-1.344-1.344H11.29V.27a.27.27 0 00-.269-.27h-.537a.27.27 0 00-.27.269v.806h1.076v.807a.27.27 0 01-.27.268h-.537a.27.27 0 01-.269-.268v-.807h-6.45v.807a.27.27 0 01-.27.268h-.537a.27.27 0 01-.269-.268v-.807h1.075V.27zm-1.075.806zm9.542 10.752c.37 0 .672-.302.672-.672V5.107a.27.27 0 00-.268-.269H1.344a.27.27 0 00-.269.27v6.047c0 .37.303.672.672.672H12.23z" fill="#A8B0BF" fill-rule="evenodd"/></svg><view id="emergency" viewBox="96 16 16 16"/><svg width="16" height="16" viewBox="0 0 16 16" x="96" y="16" xmlns="http://www.w3.org/2000/svg"><g fill="none"><path d="M13.749 15.206l2.014.557-.557-2.014a4.937 4.937 0 10-1.457 1.457z" fill="#FECE38"/><path d="M6.11 0l-2.5 6.11 2.5 6.109a6.116 6.116 0 006.109-6.11A6.116 6.116 0 006.109 0z" fill="#FEC40F"/><path d="M0 6.11a6.09 6.09 0 00.847 3.105l-.825 2.981 2.982-.824a6.09 6.09 0 003.105.847V0A6.116 6.116 0 000 6.11z" fill="#FECE38"/><path fill="#FEC40F" d="M6.578 2.813H6.11l-.312 2.359.312 2.36h.47z"/><path fill="#FEDF7F" d="M5.64 2.813h1V7.53h-1z"/><path fill="#FEC40F" d="M6.578 8.469H6.11l-.312.469.312.468h.47z"/><path fill="#FEDF7F" d="M5.64 8.469h1v.937h-1z"/></g></svg><view id="emergency-green" viewBox="96 32 16 16"/><svg width="16" height="16" viewBox="0 0 16 16" x="96" y="32" xmlns="http://www.w3.org/2000/svg"><g fill="none"><path d="M13.749 15.206l2.014.557-.557-2.014a4.937 4.937 0 10-1.457 1.457z" fill="#FEC40F"/><path d="M6.11 0l-2.5 6.11 2.5 6.109a6.116 6.116 0 006.109-6.11A6.116 6.116 0 006.109 0z" fill="#0AC257"/><path d="M0 6.11a6.09 6.09 0 00.847 3.105l-.825 2.981 2.982-.824a6.09 6.09 0 003.105.847V0A6.116 6.116 0 000 6.11z" fill="#15D164"/><path fill="#FEC40F" d="M6.578 2.813H6.11l-.312 2.359.312 2.36h.47z"/><path fill="#FEDF7F" d="M5.64 2.813h.47V7.53h-.47z"/><path fill="#FEC40F" d="M6.578 8.469H6.11l-.312.469.312.468h.47z"/><path fill="#FEDF7F" d="M5.64 8.469h.47v.937h-.47z"/></g></svg><view id="emergency-red" viewBox="96 48 16 16"/><svg width="16" height="16" viewBox="0 0 16 16" x="96" y="48" xmlns="http://www.w3.org/2000/svg"><g fill="none"><path d="M13.749 15.206l2.014.557-.557-2.014a4.937 4.937 0 10-1.457 1.457z" fill="#FF5E66"/><path d="M6.11 0l-2.5 6.11 2.5 6.109a6.116 6.116 0 006.109-6.11A6.116 6.116 0 006.109 0z" fill="#E63E46"/><path d="M0 6.11a6.09 6.09 0 00.847 3.105l-.825 2.981 2.982-.824a6.09 6.09 0 003.105.847V0A6.116 6.116 0 000 6.11z" fill="#FF5E66"/><path fill="#FEC40F" d="M6.578 2.813H6.11l-.312 2.359.312 2.36h.47z"/><path fill="#FEDF7F" d="M5.64 2.813h.47V7.53h-.47z"/><path fill="#FEC40F" d="M6.578 8.469H6.11l-.312.469.312.468h.47z"/><path fill="#FEDF7F" d="M5.64 8.469h.47v.937h-.47z"/></g></svg><view id="europe-east" viewBox="96 64 16 16"/><svg width="16" height="16" viewBox="0 0 16 16" x="96" y="64" xmlns="http://www.w3.org/2000/svg"><g fill="none" fill-rule="evenodd"><rect width="16" height="16" rx="2" fill="#E7FAEF"/><text font-family="Avenir-Heavy, Avenir" font-size="10" font-weight="600" fill="#15D164"><tspan x="5" y="11.5">E</tspan></text></g></svg><view id="europe-west" viewBox="96 80 16 16"/><svg width="16" height="16" viewBox="0 0 16 16" x="96" y="80" xmlns="http://www.w3.org/2000/svg"><g fill="none" fill-rule="evenodd"><rect width="16" height="16" rx="2" fill="#E7FAEF"/><text font-family="Avenir-Heavy, Avenir" font-size="10" font-weight="600" fill="#15D164"><tspan x="3" y="11.5">W</tspan></text></g></svg><view id="finished" viewBox="0 40 28 28"/><svg width="28" height="28" viewBox="0 0 28 28" y="40" xmlns="http://www.w3.org/2000/svg"><g fill="none" fill-rule="evenodd"><circle fill="#15D164" opacity=".1" cx="14" cy="14" r="14"/><path stroke="#15D164" d="M8.5 7.5h12v12h-12z"/><path stroke="#15D164" stroke-width="2" fill="#15D164" d="M12 11h5v5h-5z"/></g></svg><view id="international" viewBox="0 96 16 16"/><svg width="16" height="16" viewBox="0 0 16 16" y="96" xmlns="http://www.w3.org/2000/svg"><g fill="none" fill-rule="evenodd"><rect width="16" height="16" rx="2" fill="#E7FAEF"/><text font-family="Avenir-Heavy, Avenir" font-size="10" font-weight="600" fill="#15D164"><tspan x="4.5" y="11.5">N</tspan></text></g></svg><view id="latin" viewBox="16 96 16 16"/><svg width="16" height="16" viewBox="0 0 16 16" x="16" y="96" xmlns="http://www.w3.org/2000/svg"><g fill="none" fill-rule="evenodd"><rect width="16" height="16" rx="2" fill="#E7FAEF"/><text font-family="Avenir-Heavy, Avenir" font-size="10" font-weight="600" fill="#15D164"><tspan x="2" y="11.5">LA</tspan></text></g></svg><view id="loading" viewBox="0 0 40 40"/><svg style="margin:auto;background:#fff" width="40" height="40" viewBox="0 0 100 100" preserveAspectRatio="xMidYMid" display="block" xmlns="http://www.w3.org/2000/svg"><path fill="#9fb943" d="M17.5 30h15v40h-15z"><animate attributeName="y" repeatCount="indefinite" dur="1s" calcMode="spline" keyTimes="0;0.5;1" values="18;30;30" keySplines="0 0.5 0.5 1;0 0.5 0.5 1" begin="-0.2s"/><animate attributeName="height" repeatCount="indefinite" dur="1s" calcMode="spline" keyTimes="0;0.5;1" values="64;40;40" keySplines="0 0.5 0.5 1;0 0.5 0.5 1" begin="-0.2s"/></path><path fill="#607e37" d="M42.5 30h15v40h-15z"><animate attributeName="y" repeatCount="indefinite" dur="1s" calcMode="spline" keyTimes="0;0.5;1" values="20.999999999999996;30;30" keySplines="0 0.5 0.5 1;0 0.5 0.5 1" begin="-0.1s"/><animate attributeName="height" repeatCount="indefinite" dur="1s" calcMode="spline" keyTimes="0;0.5;1" values="58.00000000000001;40;40" keySplines="0 0.5 0.5 1;0 0.5 0.5 1" begin="-0.1s"/></path><path fill="#b6c89f" d="M67.5 30h15v40h-15z"><animate attributeName="y" repeatCount="indefinite" dur="1s" calcMode="spline" keyTimes="0;0.5;1" values="20.999999999999996;30;30" keySplines="0 0.5 0.5 1;0 0.5 0.5 1"/><animate attributeName="height" repeatCount="indefinite" dur="1s" calcMode="spline" keyTimes="0;0.5;1" values="58.00000000000001;40;40" keySplines="0 0.5 0.5 1;0 0.5 0.5 1"/></path></svg><view id="muslim" viewBox="32 96 16 16"/><svg width="16" height="16" viewBox="0 0 16 16" x="32" y="96" xmlns="http://www.w3.org/2000/svg"><g fill="none" fill-rule="evenodd"><rect width="16" height="16" rx="2" fill="#E7FAEF"/><text font-family="Avenir-Heavy, Avenir" font-size="10" font-weight="600" fill="#15D164"><tspan x="3.5" y="11.5">M</tspan></text></g></svg><view id="paid" viewBox="28 40 28 28"/><svg width="28" height="28" viewBox="0 0 28 28" x="28" y="40" xmlns="http://www.w3.org/2000/svg"><g fill="#15D164" fill-rule="evenodd"><circle opacity=".1" cx="14" cy="14" r="14"/><path fill-rule="nonzero" d="M22.773 7L12.24 16.744l-6.016-5.533L5 12.338 12.246 19 24 8.122z"/></g></svg><view id="paid-check" viewBox="68 56 12 12"/><svg width="12" height="12" viewBox="0 0 12 12" x="68" y="56" xmlns="http://www.w3.org/2000/svg"><g fill="#15D164" fill-rule="evenodd"><circle opacity=".1" cx="6" cy="6" r="6"/><path fill-rule="nonzero" d="M9.76 3L5.246 7.176 2.668 4.805l-.525.483 3.105 2.855 5.038-4.662z"/></g></svg><view id="pending" viewBox="68 0 28 28"/><svg width="28" height="28" viewBox="0 0 28 28" x="68" xmlns="http://www.w3.org/2000/svg"><g fill="#FEC40F" fill-rule="evenodd"><circle opacity=".2" cx="14" cy="14" r="14"/><path d="M5 12h4v4H5zm7 0h4v4h-4zm7 0h4v4h-4z"/></g></svg><view id="progress" viewBox="68 28 28 28"/><svg width="28" height="28" viewBox="0 0 28 28" x="68" y="28" xmlns="http://www.w3.org/2000/svg"><g fill="#BAEBF7" fill-rule="evenodd"><circle opacity=".2" cx="14" cy="14" r="14"/><path d="M4.024 12.015c.051-.368.23-1.097.38-1.55.178-.534.494-1.239.78-1.736.108-.188.54-.847.63-.961l.037-.047.818.818.819.818-.134.206a7.473 7.473 0 00-1.014 2.489l-.024.12H4.01l.003-.048c.001-.025.007-.074.012-.109zm1.136 2.818h1.156l.024.12c.163.82.54 1.753.992 2.455.061.094.111.179.111.187 0 .033-1.62 1.63-1.64 1.618-.035-.02-.485-.704-.62-.938a10.662 10.662 0 01-.779-1.736 10.561 10.561 0 01-.385-1.597l-.014-.109H5.16zm3.351 5.473l.82-.817.206.133a7.486 7.486 0 002.49 1.014l.12.023v2.329l-.099-.014a10.761 10.761 0 01-1.587-.384 10.681 10.681 0 01-1.738-.778 15.152 15.152 0 01-.973-.64l-.058-.048.82-.818zM7.867 5.747a10.02 10.02 0 012.594-1.333 10.761 10.761 0 011.587-.384l.1-.014v2.329l-.12.024a7.532 7.532 0 00-2.457.991c-.095.061-.18.111-.188.111-.02 0-1.628-1.607-1.628-1.627 0-.008.05-.052.112-.097zm7.064-1.719c.376.046 1.117.223 1.608.386.535.178 1.241.494 1.738.779.234.134.918.584.94.618.012.02-1.608 1.66-1.641 1.66a1.65 1.65 0 01-.188-.11 7.532 7.532 0 00-2.457-.992l-.12-.024V4.014l.12.014zm0 16.608a7.487 7.487 0 002.491-1.014l.207-.133.829.828.829.828-.047.037c-.115.09-.774.522-.963.63a10.7 10.7 0 01-1.738.778c-.491.163-1.232.341-1.608.386l-.12.014v-2.33l.12-.023zm5.373-12.112l.83-.828.125.173a9.635 9.635 0 011.723 4.193l.014.11h-2.353l-.024-.12a7.475 7.475 0 00-1.013-2.486 6.632 6.632 0 01-.132-.209c0-.002.374-.377.83-.833z" fill-rule="nonzero"/></g></svg><view id="radio-checked" viewBox="80 56 12 12"/><svg width="12" height="12" fill="none" viewBox="0 0 12 12" x="80" y="56" xmlns="http://www.w3.org/2000/svg"><circle opacity=".2" cx="6" cy="6" fill="#F1F5FF" r="5.714"/><path d="M11.115 1.714l-5.148 5.22-2.94-2.964-.598.604 3.54 3.569 5.745-5.827-.6-.602z" fill="#F1F5FF"/></svg><view id="review" viewBox="0 68 28 28"/><svg width="28" height="28" viewBox="0 0 28 28" y="68" xmlns="http://www.w3.org/2000/svg"><g fill="#FEC40F" fill-rule="evenodd"><circle opacity=".2" cx="14" cy="14" r="14"/><path d="M5 12h4v4H5zm7 0h4v4h-4zm7 0h4v4h-4z"/></g></svg><view id="success-checked" viewBox="56 68 20 18"/><svg height="18" width="20" viewBox="0 0 20 18" x="56" y="68" xmlns="http://www.w3.org/2000/svg"><g fill="#15d164" fill-rule="evenodd"><circle cx="9" cy="9" opacity=".1" r="9"/><path d="M19.16 1l-7.206 7.308-4.116-4.15L7 5.003 11.958 10 20 1.842z" fill-rule="nonzero"/></g></svg><view id="unpaid" viewBox="28 68 28 28"/><svg width="28" height="28" viewBox="0 0 28 28" x="28" y="68" xmlns="http://www.w3.org/2000/svg"><defs><circle id="va" cx="14" cy="14" r="14"/></defs><g fill="none" fill-rule="evenodd"><mask id="vb" fill="#fff"><use xlink:href="#va"/></mask><use fill="#E7E7E7" xlink:href="#va"/><g mask="url(#vb)" fill="#FCE3E5"><rect width="28" height="28" rx="2"/></g><g fill="#E63E46"><path d="M19.942 8.357L9.03 20.06l-.732-.682L19.21 7.675z"/><path d="M19.51 19.304L7.808 8.392l.682-.731 11.702 10.912z"/></g></g></svg><view id="usa" viewBox="48 96 16 16"/><svg width="16" height="16" viewBox="0 0 16 16" x="48" y="96" xmlns="http://www.w3.org/2000/svg"><g fill="none" fill-rule="evenodd"><rect width="16" height="16" rx="2" fill="#E7FAEF"/><text font-family="Avenir-Heavy, Avenir" font-size="10" font-weight="600" fill="#15D164"><tspan x="1.5" y="11.5">US</tspan></text></g></svg></svg>