<svg fill="none" height="33" viewBox="0 0 152 33" width="152" xmlns="http://www.w3.org/2000/svg" xmlns:xlink="http://www.w3.org/1999/xlink"><clipPath id="a"><path d="m0 0h152v33h-152z"/></clipPath><g clip-path="url(#a)"><g fill="#22ab59"><path d="m61.5329 12.3685c-.2598-.318-.6043-.5557-.9935-.6853-.38-.1427-.7814-.2192-1.1871-.2263-.2172.0032-.4334.0293-.6451.0776-.2251.0526-.4421.1352-.6452.2457-.2001.0989-.3713.2481-.4967.4332-.1626.2524-.2256.5564-.1767.8529.0489.2964.2062.564.4412.7505.3599.2433.7533.4328 1.1677.5625.4709.1552.9742.3104 1.5161.4655.5327.1444 1.0429.362 1.516.6466.4719.2864.8715.678 1.1677 1.1444.3419.5866.5035 1.2614.4645 1.9396.0153.688-.1305 1.3701-.4258 1.9914-.2703.5516-.6631 1.0338-1.1483 1.4095-.5008.3829-1.0702.666-1.6774.834-1.4849.409-3.0581.3617-4.5159-.1357-.7868-.2843-1.5085-.724-2.1225-1.2931l2.1419-2.3535c.3083.407.7084.7349 1.1677.9569.4552.2186.9532.3334 1.458.3362.2499-.0018.4988-.0321.7418-.0905.2375-.0517.4658-.1389.6774-.2586.1931-.1099.3586-.2625.4839-.4461.1256-.1916.1888-.4175.1806-.6466.0082-.1891-.0305-.3772-.1127-.5476s-.2053-.3177-.3582-.4287c-.3617-.2648-.7622-.472-1.1871-.6142-.4774-.1681-.9935-.3298-1.5418-.4979-.5418-.1623-1.0617-.3903-1.5483-.6788-.4727-.284-.8778-.6679-1.1871-1.125-.3366-.5512-.5006-1.1907-.4709-1.8362-.0144-.6406.1224-1.2755.3993-1.8531.2769-.5775.6861-1.0812 1.1941-1.47022.4996-.38244 1.0664-.66754 1.6709-.8405.6284-.18599 1.2803-.27965 1.9354-.27804.7579-.00054 1.5118.10834 2.2386.32328.7173.22408 1.3776.60128 1.9354 1.10558z"/><path d="m65.3714 13.3125h2.658v1.2414h.0387c.1338-.1884.2873-.3618.458-.5173.1973-.1803.4137-.3386.6452-.4719.2601-.145.5347-.262.8193-.3492.3076-.0923.6272-.1381.9483-.1358.648-.0079 1.2909.1153 1.8903.3621.5514.2266 1.0484.5682 1.458 1.0022.4127.444.731.9676.9354 1.5388.2236.6218.335 1.2786.329 1.9396.0017.6416-.1007 1.2793-.3032 1.8879-.1867.5757-.4727 1.114-.8451 1.5906-.3636.4618-.821.8408-1.3419 1.112-.5543.2856-1.1703.43-1.7935.4203-.5756.004-1.1475-.0922-1.6902-.2845-.517-.1803-.9671-.5141-1.2903-.9569h-.0387v5.4181h-2.8902zm2.658 4.7004c-.0185.6359.2132 1.2536.6451 1.7199.4675.4243 1.0757.6593 1.7064.6593s1.2389-.235 1.7064-.6593c.3928-.4868.607-1.0939.607-1.7199s-.2142-1.233-.607-1.7198c-.4675-.4243-1.0757-.6594-1.7064-.6594s-1.2389.2351-1.7064.6594c-.4319.4663-.6636 1.0839-.6451 1.7198z"/><path d="m76.8677 13.3125h2.8967v1.5129h.0387c.2558-.5135.6322-.9572 1.0967-1.2931.4762-.3063 1.0344-.4597 1.5999-.4396h.5032c.157.0111.3125.0371.4645.0776v2.6508c-.1985-.062-.4011-.1095-.6064-.1422-.2133-.0348-.4291-.0521-.6451-.0517-.4418-.0164-.882.0629-1.2903.2327-.3045.139-.5622.3636-.7419.6466-.1824.3036-.2968.6433-.3355.9957-.0545.4288-.0804.8608-.0774 1.2931v3.9245h-2.8966z"/><path d="m83.6416 18.0129c-.0101-.698.1284-1.3901.4065-2.0301.2561-.592.6343-1.123 1.1096-1.5582.4799-.4407 1.0439-.7794 1.658-.9957 1.3172-.4654 2.7536-.4654 4.0708 0 .6126.2193 1.1761.5576 1.658.9957.4733.437.8511.9675 1.1096 1.5582.2683.643.4065 1.3331.4065 2.0301 0 .6971-.1382 1.3871-.4065 2.0302-.2585.5906-.6363 1.1212-1.1096 1.5582-.4819.438-1.0454.7764-1.658.9957-1.3172.4653-2.7536.4653-4.0708 0-.6141-.2163-1.1781-.555-1.658-.9957-.4753-.4352-.8535-.9662-1.1096-1.5582-.2781-.6401-.4166-1.3322-.4065-2.0302zm2.8902 0c-.0184.6359.2133 1.2536.6451 1.7199.4675.4243 1.0757.6593 1.7064.6593.6308 0 1.239-.235 1.7064-.6593.3928-.4868.6071-1.0938.6071-1.7199 0-.626-.2143-1.233-.6071-1.7198-.4674-.4243-1.0756-.6593-1.7064-.6593-.6307 0-1.2389.235-1.7064.6593-.4318.4663-.6635 1.0839-.6451 1.7198z"/><path d="m104.402 22.7134h-2.78v-1.2931h-.039c-.112.1943-.244.3764-.394.5431-.172.1882-.37.3514-.587.4849-.249.1495-.515.2668-.7933.3491-.3141.093-.6402.1388-.9677.1358-.6119.0234-1.2209-.0938-1.7806-.3427-.4352-.2068-.8039-.5315-1.0644-.9375-.2631-.43-.4344-.9099-.5033-1.4095-.0823-.5825-.1232-1.1702-.1225-1.7586v-5.1724h2.8966v4.6035.8405c.016.2747.0748.5452.1742.8017.0911.2635.2677.4889.5016.6401.2338.1511.5115.2194.7887.1939.3137.0137.6257-.0578.9027-.2069.227-.1233.413-.3097.536-.5366.13-.239.215-.4998.252-.7694.039-.2957.058-.5938.058-.8922v-4.6811h2.896z"/><path d="m112.447 15.6466h-2.581v3.1357c-.001.2355.012.4709.039.7048.02.1932.079.3803.174.5495.096.16.241.2848.413.3556.236.0943.488.1384.742.1294.216-.0037.431-.021.645-.0518.207-.0148.405-.0914.568-.2198v2.4181c-.325.117-.663.1951-1.007.2328-.338.0383-.678.0577-1.019.0582-.456.0039-.911-.0482-1.355-.1552-.387-.0953-.753-.2643-1.077-.4979-.312-.2261-.561-.5289-.723-.8793-.183-.4056-.274-.8476-.264-1.2931v-4.487h-1.852v-2.3212h1.852v-2.7802h2.897v2.7802h2.58z"/></g><path d="m126.259 21.7435c-.877.4615-1.812.8008-2.78 1.0087-.969.2074-1.958.3115-2.949.3103-1.007.0111-2.008-.1598-2.954-.5043-.868-.3168-1.663-.8074-2.336-1.4418-.663-.6401-1.184-1.4134-1.529-2.2694-.739-1.918-.739-4.0432 0-5.9612.345-.856.866-1.6294 1.529-2.2694.666-.6292 1.452-1.11738 2.31-1.43536.947-.34235 1.948-.51098 2.955-.49784 1.019-.01046 2.036.12229 3.019.39439.903.25646 1.732.72403 2.419 1.36421l-2.122 2.3211c-.393-.4137-.865-.7436-1.387-.9698-.617-.2382-1.275-.3503-1.936-.3297-.599-.0086-1.193.1035-1.748.3297-.507.2085-.964.5213-1.342.9181-.379.4035-.671.8812-.858 1.403-.396 1.1433-.396 2.3869 0 3.5302.19.5165.482.9893.858 1.3901.378.3968.835.7096 1.342.9181.555.2262 1.149.3383 1.748.3297.573.0085 1.145-.0655 1.697-.2198.393-.1146.773-.2684 1.135-.4591v-2.2241h-2.445v-2.7802h5.342z" fill="#005924"/><path d="m127.956 10.3578c-.001-.221.042-.44003.126-.64437s.207-.38999.363-.54625c.156-.15627.341-.28007.545-.36424.204-.08418.423-.12708.643-.12622.332-.00039.657.09798.933.28267.276.18468.492.44738.619.75479.127.30742.16.64572.095.97202-.065.3264-.225.6261-.46.8612-.234.2355-.533.3959-.859.4609-.326.0651-.663.0318-.97-.0956s-.569-.3432-.753-.62-.283-.6022-.282-.9349zm.232 2.9547h2.91v9.4008h-2.897z" fill="#005924"/><path d="m142.62 21.9181c0 1.7802-.448 3.1315-1.342 4.0539-.895.9224-2.254 1.3815-4.077 1.3771-.832.002-1.661-.0912-2.471-.278-.819-.1904-1.584-.5639-2.239-1.0926l1.6-2.3988c.43.3619.907.6622 1.419.8923.515.2238 1.071.3362 1.633.3297.349.0264.7-.0172 1.032-.1282s.639-.2872.903-.5183c.212-.2187.379-.4778.49-.7621s.163-.588.155-.8931v-.9116h-.039c-.309.4343-.74.7672-1.238.9569-.446.1781-.92.2744-1.4.2844-.648.0087-1.291-.1145-1.89-.362-.559-.2242-1.063-.566-1.478-1.0022-.413-.444-.731-.9676-.935-1.5388-.224-.6219-.335-1.2786-.329-1.9396-.001-.6178.099-1.2317.297-1.8168.185-.5695.474-1.0999.851-1.5647.368-.4525.825-.8244 1.342-1.0927.554-.2863 1.17-.4307 1.793-.4202.711-.0084 1.414.1581 2.045.4849.25.1298.484.2882.697.472.171.1555.325.3289.458.5172h.039v-1.2414h2.664zm-7.29-3.9634c-.001.3012.056.5996.167.8793.116.276.285.5265.497.7371.211.2123.458.3853.729.5108.288.1278.599.1938.913.1938.315 0 .626-.066.913-.1938.276-.1237.528-.2968.742-.5108.425-.4299.664-1.0108.664-1.6164 0-.6055-.239-1.1864-.664-1.6163-.214-.214-.466-.3871-.742-.5108-.287-.1278-.598-.1938-.913-.1938-.314 0-.625.066-.913.1938-.271.1255-.518.2985-.729.5108-.212.2106-.381.4611-.497.737-.111.2798-.168.5782-.167.8793z" fill="#005924"/><path d="m149.852 16.0798c-.197-.2565-.451-.4625-.743-.6008s-.612-.2049-.935-.1945c-.247.0008-.49.0607-.709.1745-.109.0566-.2.1432-.262.2498-.062.1065-.092.2285-.087.3516-.001.1115.033.2206.096.3121.064.0916.154.161.259.1986.293.1275.598.225.91.291l1.174.2715c.413.0935.811.2459 1.181.4526.362.2058.671.4936.903.8405.257.4282.38.9235.355 1.4224.022.5283-.115 1.051-.394 1.5-.258.3907-.605.7143-1.013.944-.43.2454-.899.4159-1.387.5043-.502.0966-1.011.1464-1.522.1487-.675-.0033-1.345-.099-1.994-.2845-.644-.1738-1.23-.5176-1.697-.9957l1.755-1.9396c.246.3133.554.5729.903.7629.353.1821.746.2732 1.142.2651.31.0032.618-.047.91-.1487.118-.0282.223-.0962.297-.1928.074-.0965.113-.2157.109-.3374.002-.1172-.032-.2322-.096-.3301-.065-.0979-.157-.1743-.265-.2194-.287-.1416-.59-.2459-.903-.3104l-1.174-.2715c-.411-.0927-.808-.2383-1.181-.4332-.367-.191-.678-.4739-.903-.8211-.26-.4273-.385-.9228-.361-1.4225-.014-.4981.104-.991.342-1.4288.214-.3939.516-.7326.883-.9893.392-.2679.829-.4609 1.291-.5689.472-.1231.957-.1861 1.445-.1875.633.0018 1.263.0932 1.871.2715.614.1701 1.169.5055 1.606.9699z" fill="#005924"/><path d="m26.2505 31.5322c-1.6698.0038-3.3295-.2603-4.9159-.7824-.3808-.1765-.6835-.4873-.8505-.873-.1669-.3858-.1866-.8196-.0551-1.2188.1315-.3993.4049-.7362.7682-.9466.3632-.2104.791-.2796 1.2018-.1943 1.2469.4241 2.5542.6424 3.8709.6465 3.2669-.0034 6.3991-1.3056 8.7092-3.6207 2.3101-2.3152 3.6094-5.4543 3.6128-8.7284v-12.34914h-12.322c-3.267.00343-6.3992 1.30558-8.7093 3.62076-2.3101 2.31517-3.6094 5.45428-3.6128 8.72838.0041 1.3196.2219 2.6297.6451 3.8793.1012.2192.155.4574.1579.6989s-.0451.481-.1411.7025c-.0959.2216-.2375.4204-.4154.5833-.178.1628-.3883.2862-.6172.3619-.2288.0757-.4711.102-.7108.0773-.2398-.0248-.4716-.1-.6803-.2209-.2087-.1208-.3895-.2845-.5306-.4803s-.2393-.4194-.2881-.6559c-.7716-2.3681-.9731-4.8856-.588-7.3468.385-2.4611 1.3457-4.79593 2.8035-6.81372s3.3714-3.66124 5.5842-4.796c2.2129-1.134772 4.6623-1.7286475 7.148-1.7331133h14.0252c.4534 0 .8883.1805053 1.2089.5018233s.5007.75712.5007 1.21153v14.05608c-.0239 4.179-1.7006 8.1779-4.6625 11.1196-2.9618 2.9417-6.9669 4.5859-11.1368 4.5722z" fill="#22ab59"/><path d="m8.70286 33c-.87679.0044-1.7458-.1647-2.55727-.4976-.81146-.3328-1.54941-.8229-2.17155-1.4421l-3.477286-3.4849c-.158426-.1587-.284097-.3472-.369837-.5547-.0857403-.2074-.12986195-.4298-.12986195-.6543 0-.2246.04412165-.4469.12986195-.6543.08574-.2075.211411-.396.369837-.5548.158427-.1587.346512-.2847.553506-.3706.207-.086.42884-.1302.65289-.1302s.44592.0442.65291.1302c.207.0859.39506.2119.55349.3706l3.47728 3.485c.6134.6147 1.44533.96 2.3128.96s1.69937-.3453 2.31277-.96l21.1153-21.15522c.3235-.29723.749-.45781 1.1878-.44826.4388.00956.857.18851 1.1673.49954.3104.31103.489.73012.4985 1.16988s-.1507.86622-.4473 1.19046l-21.1088 21.1423c-.6195.6221-1.3557 1.1155-2.1661 1.4517s-1.67914.5086-2.55624.5073z" fill="#005924"/></g></svg>